<svg xmlns="http://www.w3.org/2000/svg" width="1024" height="1024" viewBox="0 0 1024 1024">
<g>
<path d="M 905.19 634.82 C902.24,635.71 850.70,635.99 696.88,635.98 C500.32,635.96 492.34,635.89 488.43,634.11 C482.33,631.34 477.50,626.60 475.11,621.03 L 472.97 616.05 L 473.50 383.50 L 475.68 379.43 C478.57,374.02 484.96,368.38 489.68,367.07 C492.32,366.34 557.03,366.01 698.50,366.02 L 903.50 366.02 L 908.50 368.38 C914.51,371.21 917.23,374.01 919.93,380.11 C921.92,384.61 921.96,386.65 922.23,501.10 L 922.50 617.50 L 920.29 621.63 C917.42,626.99 910.16,633.34 905.19,634.82 ZM 490.60 623.73 L 494.50 625.97 L 697.80 625.98 C713.51,625.98 728.03,625.99 741.45,625.99 C896.46,626.03 904.89,626.03 907.96,621.98 C908.41,621.39 908.74,620.72 909.38,619.96 L 912.00 616.85 L 912.00 501.37 C912.00,494.69 912.00,488.39 912.00,482.43 C912.02,390.24 912.02,382.81 908.33,379.57 C907.77,379.07 907.13,378.67 906.39,378.09 L 903.73 376.00 L 698.27 376.00 C505.38,376.00 492.63,376.11 489.88,377.73 C488.27,378.68 486.07,381.30 484.98,383.54 C483.04,387.54 483.00,390.08 483.00,501.08 C483.00,609.64 483.08,614.68 484.85,618.02 C485.87,619.93 488.46,622.51 490.60,623.73 ZM 140.65 660.93 C136.80,662.79 134.56,663.00 118.43,662.98 C103.98,662.96 99.86,662.64 97.22,661.34 C92.94,659.23 89.33,654.86 88.04,650.22 C87.40,647.89 87.01,627.64 87.01,595.96 C87.00,541.15 87.12,539.77 92.66,528.44 C95.59,522.46 103.19,514.19 111.54,507.88 C114.54,505.61 117.00,503.44 117.00,503.05 C117.00,502.66 112.41,501.58 106.80,500.66 C101.19,499.74 95.00,498.18 93.05,497.19 C85.69,493.45 82.58,480.91 87.27,473.90 C91.33,467.82 94.39,467.00 113.00,467.02 C122.07,467.02 130.18,467.46 131.00,467.98 C132.10,468.67 132.63,471.51 133.00,478.71 L 133.50 488.50 L 146.78 461.53 C154.08,446.70 161.06,433.48 162.28,432.15 C163.50,430.82 166.75,428.67 169.50,427.38 L 174.50 425.02 L 259.67 425.01 C340.98,425.00 345.03,425.09 349.17,426.89 C351.55,427.93 354.91,430.29 356.63,432.14 C358.40,434.05 365.06,446.53 372.01,461.00 C378.76,475.02 384.66,486.93 385.14,487.45 C385.63,487.99 386.00,484.74 386.00,479.92 C386.00,479.63 386.00,479.34 386.00,479.05 C386.00,473.90 385.99,470.95 387.45,469.26 C389.41,466.99 393.98,467.00 404.68,467.00 C405.11,467.00 405.56,467.00 406.02,467.00 C425.56,467.00 428.39,467.79 432.00,474.22 C433.80,477.42 434.15,479.30 433.80,484.10 C433.03,494.71 428.71,498.10 412.69,500.68 C406.81,501.62 402.00,502.68 402.00,503.02 C402.00,503.37 405.01,506.09 408.70,509.08 C412.38,512.06 417.16,516.30 419.32,518.50 C424.09,523.35 429.42,534.37 430.91,542.43 C432.31,550.08 432.40,646.02 431.00,651.04 C429.89,655.07 424.87,660.36 420.68,661.94 C416.35,663.57 383.68,663.32 379.72,661.62 C375.83,659.96 371.51,655.52 370.06,651.68 C369.48,650.14 369.00,644.02 369.00,638.09 L 369.00 627.31 L 150.19 627.50 L 149.85 639.50 C149.44,653.65 147.80,657.47 140.65,660.93 ZM 114.00 617.33 C115.38,617.55 181.81,617.79 261.64,617.86 L 406.77 618.00 L 412.04 615.25 C421.17,610.48 421.44,609.41 421.81,577.00 C422.28,536.11 421.27,532.91 402.71,516.40 C396.54,510.92 390.08,505.38 388.35,504.10 L 385.20 501.77 L 259.55 501.84 L 133.90 501.91 L 129.70 505.19 C121.80,511.36 108.50,523.19 105.76,526.50 C104.25,528.32 101.77,532.21 100.26,535.15 L 97.50 540.50 L 97.18 570.93 C96.83,605.08 97.17,607.30 103.58,612.94 C106.88,615.83 108.32,616.44 114.00,617.33 ZM 144.00 490.64 C144.00,491.78 162.79,492.00 259.44,492.00 C322.93,492.00 375.08,491.66 375.32,491.25 C375.56,490.84 370.06,478.60 363.08,464.05 C350.81,438.45 350.28,437.55 346.45,435.82 C342.74,434.14 337.32,434.04 258.46,434.26 C179.07,434.49 174.26,434.60 171.63,436.32 C169.56,437.68 165.71,444.61 156.43,463.71 C149.59,477.77 144.00,489.89 144.00,490.64 ZM 170.10 563.71 C165.66,566.70 162.29,566.56 142.50,562.55 C123.64,558.74 119.60,556.95 115.49,550.64 C113.11,546.99 112.97,536.80 115.23,532.50 C118.37,526.54 125.59,522.00 131.96,522.00 C136.24,522.00 172.58,540.43 174.72,543.69 C176.78,546.85 176.92,554.58 174.98,558.46 C174.17,560.09 171.97,562.45 170.10,563.71 ZM 377.81 562.31 C368.21,564.34 358.81,566.00 356.92,566.00 C345.86,565.98 338.51,550.89 345.75,543.06 C347.26,541.42 356.41,536.02 366.09,531.04 C385.47,521.07 388.75,520.30 396.00,524.00 C404.36,528.26 408.29,541.34 403.82,549.99 C400.32,556.76 397.33,558.18 377.81,562.31 ZM 345.73 598.81 C344.87,599.52 318.42,599.96 263.98,600.18 C177.93,600.52 173.25,600.45 171.28,598.82 C169.67,597.48 169.62,593.78 171.20,592.20 C172.11,591.29 193.00,591.00 259.09,591.00 C337.22,591.00 345.85,591.16 346.39,592.58 C347.37,595.12 347.10,597.67 345.73,598.81 ZM 404.93 606.25 C400.54,608.49 376.35,608.73 371.42,606.58 C363.73,603.23 361.30,593.02 366.75,586.99 C369.17,584.30 371.50,583.44 386.22,579.73 L 402.94 575.51 L 406.42 577.39 C411.44,580.09 413.37,584.80 412.73,592.78 C412.14,600.14 410.14,603.59 404.93,606.25 ZM 323.53 554.97 C321.72,556.97 320.73,557.00 260.07,557.00 C205.91,557.00 198.18,556.81 196.22,555.44 C193.62,553.62 193.35,550.79 195.58,548.56 C196.99,547.15 203.88,547.01 260.30,547.24 L 323.45 547.50 L 324.41 550.22 C325.17,552.37 324.98,553.36 323.53,554.97 ZM 149.08 605.29 C146.69,606.70 143.52,607.00 130.85,607.00 C113.76,606.99 110.64,606.07 107.55,600.09 C105.54,596.21 105.52,585.82 107.52,581.97 C109.25,578.62 113.66,576.00 117.57,576.00 C121.40,576.00 147.06,582.89 149.83,584.67 C152.35,586.27 155.00,591.61 155.00,595.07 C155.00,598.57 152.16,603.47 149.08,605.29 ZM 99.07 650.37 L 101.15 653.00 L 119.02 653.00 C119.97,653.00 120.88,653.00 121.74,653.00 C131.88,653.02 136.40,653.02 138.41,650.78 C140.03,648.98 140.02,645.71 140.00,639.83 C140.00,639.20 140.00,638.55 140.00,637.86 L 140.00 627.17 L 123.25 626.83 C107.94,626.53 106.19,626.31 102.88,624.25 C100.89,623.01 98.75,622.00 98.13,622.00 C97.35,622.00 97.00,625.96 97.00,634.87 C97.00,646.37 97.22,648.01 99.07,650.37 ZM 381.01 650.78 C382.99,652.91 383.79,653.00 400.38,653.00 C401.47,653.00 402.50,653.00 403.48,653.00 C413.00,653.03 417.47,653.04 419.63,650.80 C421.76,648.59 421.61,644.18 421.83,635.40 C422.01,628.03 421.98,622.00 421.77,622.00 C421.55,622.00 419.38,623.01 416.94,624.25 C413.03,626.23 410.54,626.56 396.00,627.00 L 379.50 627.50 L 379.22 638.03 C378.96,647.51 379.14,648.77 381.01,650.78 ZM 144.50 552.85 C155.94,555.29 163.11,556.38 164.18,555.85 C166.45,554.71 167.44,551.23 165.99,549.48 C163.83,546.88 133.94,532.00 130.87,532.00 C126.50,532.00 123.00,535.93 123.00,540.84 C123.00,547.76 124.44,548.56 144.50,552.85 ZM 353.45 553.94 C354.47,555.07 356.52,556.00 357.99,556.00 C362.91,556.00 392.46,548.89 394.24,547.28 C396.75,545.01 396.58,538.01 393.93,534.63 C390.43,530.19 386.94,531.00 369.32,540.36 C360.66,544.96 353.13,549.43 352.58,550.30 C351.85,551.46 352.08,552.43 353.45,553.94 ZM 107.57 491.03 C113.03,491.99 118.74,492.83 120.25,492.89 L 123.00 493.00 L 123.00 477.25 L 119.88 476.62 C118.16,476.28 112.53,476.00 107.38,476.00 C99.33,476.00 97.72,476.28 96.00,478.00 C93.51,480.49 93.44,484.08 95.82,487.03 C97.25,488.79 99.78,489.65 107.57,491.03 ZM 396.49 493.16 C396.99,493.66 417.70,490.55 421.13,489.46 C423.30,488.77 424.28,485.67 423.82,480.89 L 423.50 477.50 L 409.75 477.22 L 396.00 476.94 L 396.00 484.81 C396.00,489.13 396.22,492.89 396.49,493.16 ZM 374.69 597.36 C375.08,597.74 381.24,597.93 388.38,597.78 L 401.38 597.50 L 402.26 594.09 C403.36,589.81 402.46,586.00 400.34,586.00 C399.45,586.00 395.74,586.86 392.11,587.91 C388.47,588.96 382.91,590.55 379.75,591.44 C375.47,592.64 374.00,593.52 374.00,594.86 C374.00,595.85 374.31,596.98 374.69,597.36 ZM 117.28 596.46 C119.39,598.00 142.59,597.81 144.16,596.24 C146.21,594.19 143.52,592.64 131.74,589.10 C117.94,584.95 116.60,585.11 116.18,590.96 C115.97,593.97 116.33,595.77 117.28,596.46 Z" fill="rgb(9,60,108)"/>
<path d="M 530.86 537.25 C527.48,540.46 527.18,540.51 524.17,538.40 C522.68,537.36 521.99,536.00 522.19,534.49 C522.38,533.10 529.48,524.90 540.00,513.93 C557.41,495.78 557.50,495.66 557.67,490.93 C557.96,482.93 562.87,478.00 570.55,478.00 C575.56,478.00 580.67,483.07 581.61,488.98 C582.25,492.98 582.77,493.53 590.39,498.36 C594.84,501.19 598.93,503.31 599.49,503.08 C600.05,502.84 603.06,502.56 606.19,502.46 L 611.87 502.26 L 623.12 491.88 C629.31,486.17 637.78,478.35 641.94,474.49 C646.10,470.64 652.45,464.92 656.05,461.79 C662.09,456.55 662.58,455.83 662.21,452.68 C661.70,448.28 664.20,443.46 668.30,440.96 C676.67,435.86 686.00,441.58 686.00,451.82 C686.00,458.88 679.34,464.53 672.27,463.46 C668.62,462.90 668.17,463.20 657.96,472.69 C652.16,478.09 640.57,488.75 632.21,496.40 C617.99,509.39 617.00,510.53 617.00,513.90 C616.99,522.09 609.28,528.30 601.87,526.08 C596.76,524.55 593.00,519.88 593.00,515.05 C593.00,511.42 592.67,511.04 585.25,506.22 L 577.50 501.19 L 570.72 501.73 L 563.95 502.28 L 548.85 518.39 C540.55,527.25 532.45,535.74 530.86,537.25 ZM 682.50 494.00 L 682.50 598.00 L 674.29 598.00 L 666.09 598.00 L 665.79 579.25 C665.63,568.94 665.63,545.54 665.79,527.25 L 666.08 494.00 L 674.29 494.00 ZM 877.86 535.28 C872.90,538.35 864.62,539.63 859.80,538.07 C854.47,536.35 848.07,530.79 845.51,525.64 C840.49,515.58 842.65,504.88 851.15,497.60 C860.19,489.87 872.21,490.04 881.30,498.03 C887.14,503.17 889.40,508.84 888.81,516.89 C888.26,524.57 884.22,531.35 877.86,535.28 ZM 876.72 602.14 C869.00,606.08 858.95,605.30 852.06,600.22 C850.65,599.18 848.04,595.92 846.25,592.96 C843.57,588.53 843.00,586.57 843.00,581.75 C843.00,568.80 853.12,559.00 866.50,559.00 C872.87,559.00 877.09,560.51 881.79,564.47 C893.75,574.56 891.02,594.85 876.72,602.14 ZM 648.00 528.00 L 648.00 598.00 L 631.00 598.00 L 631.00 528.00 ZM 578.00 542.00 L 578.00 598.00 L 561.00 598.00 L 561.00 542.00 ZM 785.00 414.00 L 785.00 469.00 L 768.00 469.00 L 768.00 414.00 ZM 653.17 428.35 C651.54,429.82 647.41,430.00 614.89,430.00 C574.10,430.00 573.59,429.92 574.19,423.65 L 574.50 420.50 L 613.93 420.24 C644.82,420.03 653.54,420.25 654.17,421.24 C655.54,423.39 655.08,426.62 653.17,428.35 ZM 613.00 554.00 L 613.00 598.00 L 596.00 598.00 L 596.00 554.00 ZM 862.47 528.94 C866.77,530.19 867.04,530.16 871.69,528.05 C876.22,526.00 880.00,520.29 880.00,515.51 C880.00,511.60 877.56,506.59 874.49,504.17 C870.65,501.15 861.40,501.11 857.61,504.09 C850.88,509.38 850.21,518.53 856.11,524.62 C857.95,526.51 860.81,528.46 862.47,528.94 ZM 860.00 594.21 C871.66,600.57 884.28,587.31 878.10,575.19 C875.61,570.31 871.70,568.00 865.95,568.00 C860.58,568.00 856.29,570.57 853.90,575.21 C850.15,582.53 852.60,590.17 860.00,594.21 ZM 544.00 564.00 L 544.00 598.00 L 527.00 598.00 L 527.00 564.00 ZM 752.00 440.00 L 752.00 469.00 L 735.00 469.00 L 735.00 440.00 ZM 866.90 524.05 C866.04,524.51 865.54,524.82 865.02,524.85 C864.17,524.91 863.28,524.26 860.73,522.42 C860.55,522.28 860.35,522.14 860.15,521.99 C855.44,518.58 854.58,514.83 858.07,512.96 C859.67,512.11 860.67,512.21 862.52,513.42 C864.82,514.93 865.01,514.85 867.57,511.49 C870.72,507.37 875.22,506.67 877.02,510.03 C877.95,511.77 877.42,512.86 873.38,517.59 C870.79,520.62 867.87,523.54 866.90,524.05 ZM 871.41 585.09 C868.19,588.34 865.09,591.00 864.51,591.00 C863.93,591.00 861.75,589.60 859.67,587.88 C856.76,585.48 855.96,584.16 856.20,582.13 C856.43,580.08 857.12,579.43 859.31,579.18 C860.86,579.00 862.70,579.34 863.41,579.92 C864.37,580.72 865.48,580.11 867.87,577.49 C871.82,573.15 875.65,572.76 876.61,576.59 C877.17,578.80 876.40,580.05 871.41,585.09 ZM 566.00 492.00 C567.26,494.36 571.22,494.65 572.99,492.51 C573.70,491.66 573.95,489.95 573.59,488.51 C573.10,486.54 572.33,486.00 570.02,486.00 C566.37,486.00 564.38,488.98 566.00,492.00 ZM 602.61 517.70 C603.58,518.42 604.68,519.00 605.04,519.00 C606.64,519.00 609.13,514.95 608.83,512.83 C608.56,510.90 607.91,510.50 605.00,510.50 C601.87,510.50 601.46,510.81 601.16,513.45 C600.94,515.41 601.42,516.84 602.61,517.70 ZM 672.15 454.40 C675.39,456.66 678.21,454.81 677.81,450.68 C677.57,448.23 676.97,447.42 675.19,447.17 C670.34,446.49 668.18,451.62 672.15,454.40 Z" fill="rgb(16,124,205)"/>
<path d="M 548.85 451.72 C545.59,453.88 543.33,454.51 538.11,454.74 C534.06,454.92 530.34,454.50 528.50,453.66 C513.16,446.69 510.31,427.59 522.99,416.74 C532.14,408.91 544.68,409.59 552.75,418.35 C557.64,423.65 559.37,428.57 558.79,435.55 C558.25,442.06 554.69,447.85 548.85,451.72 ZM 850.00 406.00 L 850.00 469.00 L 833.00 469.00 L 833.00 406.00 ZM 827.87 508.38 L 826.68 511.00 L 735.05 511.00 L 733.41 508.50 C731.89,506.18 731.89,505.82 733.41,503.50 L 735.05 501.00 L 825.95 501.00 L 827.51 503.38 C828.78,505.32 828.85,506.23 827.87,508.38 ZM 827.96 576.07 C826.96,577.93 825.39,578.00 781.02,578.00 L 735.11 578.00 L 733.56 575.78 C731.55,572.92 731.59,572.41 734.00,570.00 C735.94,568.06 737.33,568.00 780.50,568.00 C823.67,568.00 825.06,568.06 827.00,570.00 C829.27,572.27 829.44,573.32 827.96,576.07 ZM 820.00 428.00 L 820.00 469.00 L 803.00 469.00 L 803.00 428.00 ZM 802.07 529.96 C800.85,530.62 788.11,531.00 767.59,531.00 L 735.05 531.00 L 733.41 528.50 C731.89,526.18 731.89,525.82 733.41,523.50 L 735.05 521.00 L 767.87 521.00 C798.40,521.00 800.81,521.13 802.35,522.83 C804.57,525.29 804.44,528.70 802.07,529.96 ZM 802.43 596.43 C801.06,597.79 796.55,598.00 768.13,598.00 C733.16,598.00 733.00,597.98 733.00,593.00 C733.00,588.02 733.16,588.00 768.13,588.00 C796.55,588.00 801.06,588.21 802.43,589.57 C803.29,590.44 804.00,591.98 804.00,593.00 C804.00,594.02 803.29,595.56 802.43,596.43 ZM 880.00 434.00 L 880.00 469.00 L 863.00 469.00 L 863.00 434.00 ZM 533.54 445.27 C536.91,446.13 537.97,446.04 541.36,444.62 C550.51,440.80 551.94,427.98 543.77,423.00 C533.30,416.62 521.07,426.63 525.58,437.90 C527.16,441.87 529.82,444.33 533.54,445.27 ZM 616.07 447.96 C614.93,448.57 606.32,449.00 595.14,449.00 C574.97,449.00 573.00,448.56 573.00,444.00 C573.00,439.42 574.91,439.00 595.87,439.00 C609.88,439.00 615.95,439.35 616.80,440.20 C618.70,442.10 618.26,446.79 616.07,447.96 Z" fill="rgb(155,163,170)"/>
<path d="M 0.00 512.00 L 0.00 0.00 L 512.00 0.00 L 1024.00 0.00 L 1024.00 512.00 L 1024.00 1024.00 L 512.00 1024.00 L 0.00 1024.00 L 0.00 512.00 ZM 140.65 660.93 C147.80,657.47 149.44,653.65 149.85,639.50 L 150.19 627.50 L 259.60 627.41 L 369.00 627.31 L 369.00 638.09 C369.00,644.02 369.48,650.14 370.06,651.68 C371.51,655.52 375.83,659.96 379.72,661.62 C383.68,663.32 416.35,663.57 420.68,661.94 C424.87,660.36 429.89,655.07 431.00,651.04 C432.40,646.02 432.31,550.08 430.91,542.43 C429.42,534.37 424.09,523.35 419.32,518.50 C417.16,516.30 412.38,512.06 408.70,509.08 C405.01,506.09 402.00,503.37 402.00,503.02 C402.00,502.68 406.81,501.62 412.69,500.68 C428.71,498.10 433.03,494.71 433.80,484.10 C434.15,479.30 433.80,477.42 432.00,474.22 C428.39,467.79 425.56,467.00 406.02,467.00 C385.53,467.00 386.00,466.70 386.00,479.92 C386.00,484.74 385.63,487.99 385.14,487.45 C384.66,486.93 378.76,475.02 372.01,461.00 C365.06,446.53 358.40,434.05 356.63,432.14 C354.91,430.29 351.55,427.93 349.17,426.89 C345.03,425.09 340.98,425.00 259.67,425.01 L 174.50 425.02 L 169.50 427.38 C166.75,428.67 163.50,430.82 162.28,432.15 C161.06,433.48 154.08,446.70 146.78,461.53 L 133.50 488.50 L 133.00 478.71 C132.63,471.51 132.10,468.67 131.00,467.98 C130.18,467.46 122.07,467.02 113.00,467.02 C94.39,467.00 91.33,467.82 87.27,473.90 C82.58,480.91 85.69,493.45 93.05,497.19 C95.00,498.18 101.19,499.74 106.80,500.66 C112.41,501.58 117.00,502.66 117.00,503.05 C117.00,503.44 114.54,505.61 111.54,507.88 C103.19,514.19 95.59,522.46 92.66,528.44 C87.12,539.77 87.00,541.15 87.01,595.96 C87.01,627.64 87.40,647.89 88.04,650.22 C89.33,654.86 92.94,659.23 97.22,661.34 C99.86,662.64 103.98,662.96 118.43,662.98 C134.56,663.00 136.80,662.79 140.65,660.93 ZM 905.19 634.82 C910.16,633.34 917.42,626.99 920.29,621.63 L 922.50 617.50 L 922.23 501.10 C921.96,386.65 921.92,384.61 919.93,380.11 C917.23,374.01 914.51,371.21 908.50,368.38 L 903.50 366.02 L 698.50 366.02 C557.03,366.01 492.32,366.34 489.68,367.07 C484.96,368.38 478.57,374.02 475.68,379.43 L 473.50 383.50 L 473.23 499.78 L 472.97 616.05 L 475.11 621.03 C477.50,626.60 482.33,631.34 488.43,634.11 C492.34,635.89 500.32,635.96 696.88,635.98 C850.70,635.99 902.24,635.71 905.19,634.82 ZM 99.07 650.37 C97.22,648.01 97.00,646.37 97.00,634.87 C97.00,625.96 97.35,622.00 98.13,622.00 C98.75,622.00 100.89,623.01 102.88,624.25 C106.19,626.31 107.94,626.53 123.25,626.83 L 140.00 627.17 L 140.00 637.86 C140.00,653.72 140.99,653.00 119.02,653.00 L 101.15 653.00 L 99.07 650.37 ZM 381.01 650.78 C379.14,648.77 378.96,647.51 379.22,638.03 L 379.50 627.50 L 396.00 627.00 C410.54,626.56 413.03,626.23 416.94,624.25 C419.38,623.01 421.55,622.00 421.77,622.00 C421.98,622.00 422.01,628.03 421.83,635.40 C421.37,653.96 422.54,653.00 400.38,653.00 C383.79,653.00 382.99,652.91 381.01,650.78 ZM 114.00 617.33 C108.32,616.44 106.88,615.83 103.58,612.94 C97.17,607.30 96.83,605.08 97.18,570.93 L 97.50 540.50 L 100.26 535.15 C101.77,532.21 104.25,528.32 105.76,526.50 C108.50,523.19 121.80,511.36 129.70,505.19 L 133.90 501.91 L 259.55 501.84 L 385.20 501.77 L 388.35 504.10 C390.08,505.38 396.54,510.92 402.71,516.40 C421.27,532.91 422.28,536.11 421.81,577.00 C421.44,609.41 421.17,610.48 412.04,615.25 L 406.77 618.00 L 261.64 617.86 C181.81,617.79 115.38,617.55 114.00,617.33 ZM 404.93 606.25 C410.14,603.59 412.14,600.14 412.73,592.78 C413.37,584.80 411.44,580.09 406.42,577.39 L 402.94 575.51 L 386.22 579.73 C371.50,583.44 369.17,584.30 366.75,586.99 C361.30,593.02 363.73,603.23 371.42,606.58 C376.35,608.73 400.54,608.49 404.93,606.25 ZM 149.08 605.29 C152.16,603.47 155.00,598.57 155.00,595.07 C155.00,591.61 152.35,586.27 149.83,584.67 C147.06,582.89 121.40,576.00 117.57,576.00 C113.66,576.00 109.25,578.62 107.52,581.97 C105.52,585.82 105.54,596.21 107.55,600.09 C110.64,606.07 113.76,606.99 130.85,607.00 C143.52,607.00 146.69,606.70 149.08,605.29 ZM 345.73 598.81 C347.10,597.67 347.37,595.12 346.39,592.58 C345.85,591.16 337.22,591.00 259.09,591.00 C193.00,591.00 172.11,591.29 171.20,592.20 C169.62,593.78 169.67,597.48 171.28,598.82 C173.25,600.45 177.93,600.52 263.98,600.18 C318.42,599.96 344.87,599.52 345.73,598.81 ZM 170.10 563.71 C171.97,562.45 174.17,560.09 174.98,558.46 C176.92,554.58 176.78,546.85 174.72,543.69 C172.58,540.43 136.24,522.00 131.96,522.00 C125.59,522.00 118.37,526.54 115.23,532.50 C112.97,536.80 113.11,546.99 115.49,550.64 C119.60,556.95 123.64,558.74 142.50,562.55 C162.29,566.56 165.66,566.70 170.10,563.71 ZM 377.81 562.31 C397.33,558.18 400.32,556.76 403.82,549.99 C408.29,541.34 404.36,528.26 396.00,524.00 C388.75,520.30 385.47,521.07 366.09,531.04 C356.41,536.02 347.26,541.42 345.75,543.06 C338.51,550.89 345.86,565.98 356.92,566.00 C358.81,566.00 368.21,564.34 377.81,562.31 ZM 323.53 554.97 C324.98,553.36 325.17,552.37 324.41,550.22 L 323.45 547.50 L 260.30 547.24 C203.88,547.01 196.99,547.15 195.58,548.56 C193.35,550.79 193.62,553.62 196.22,555.44 C198.18,556.81 205.91,557.00 260.07,557.00 C320.73,557.00 321.72,556.97 323.53,554.97 ZM 396.49 493.16 C396.22,492.89 396.00,489.13 396.00,484.81 L 396.00 476.94 L 409.75 477.22 L 423.50 477.50 L 423.82 480.89 C424.28,485.67 423.30,488.77 421.13,489.46 C417.70,490.55 396.99,493.66 396.49,493.16 ZM 107.57 491.03 C99.78,489.65 97.25,488.79 95.82,487.03 C93.44,484.08 93.51,480.49 96.00,478.00 C97.72,476.28 99.33,476.00 107.38,476.00 C112.53,476.00 118.16,476.28 119.88,476.62 L 123.00 477.25 L 123.00 485.12 L 123.00 493.00 L 120.25 492.89 C118.74,492.83 113.03,491.99 107.57,491.03 ZM 144.00 490.64 C144.00,489.89 149.59,477.77 156.43,463.71 C165.71,444.61 169.56,437.68 171.63,436.32 C174.26,434.60 179.07,434.49 258.46,434.26 C337.32,434.04 342.74,434.14 346.45,435.82 C350.28,437.55 350.81,438.45 363.08,464.05 C370.06,478.60 375.56,490.84 375.32,491.25 C375.08,491.66 322.93,492.00 259.44,492.00 C162.79,492.00 144.00,491.78 144.00,490.64 ZM 490.60 623.73 C488.46,622.51 485.87,619.93 484.85,618.02 C483.08,614.68 483.00,609.64 483.00,501.08 C483.00,390.08 483.04,387.54 484.98,383.54 C486.07,381.30 488.27,378.68 489.88,377.73 C492.63,376.11 505.38,376.00 698.27,376.00 L 903.73 376.00 L 906.39 378.09 C912.33,382.77 912.00,375.47 912.00,501.37 L 912.00 616.85 L 909.38 619.96 C903.88,626.49 921.10,626.00 697.80,625.98 L 494.50 625.97 L 490.60 623.73 ZM 876.72 602.14 C891.02,594.85 893.75,574.56 881.79,564.47 C877.09,560.51 872.87,559.00 866.50,559.00 C853.12,559.00 843.00,568.80 843.00,581.75 C843.00,586.57 843.57,588.53 846.25,592.96 C848.04,595.92 850.65,599.18 852.06,600.22 C858.95,605.30 869.00,606.08 876.72,602.14 ZM 544.00 581.00 L 544.00 564.00 L 535.50 564.00 L 527.00 564.00 L 527.00 581.00 L 527.00 598.00 L 535.50 598.00 L 544.00 598.00 L 544.00 581.00 ZM 578.00 570.00 L 578.00 542.00 L 569.50 542.00 L 561.00 542.00 L 561.00 570.00 L 561.00 598.00 L 569.50 598.00 L 578.00 598.00 L 578.00 570.00 ZM 613.00 576.00 L 613.00 554.00 L 604.50 554.00 L 596.00 554.00 L 596.00 576.00 L 596.00 598.00 L 604.50 598.00 L 613.00 598.00 L 613.00 576.00 ZM 648.00 563.00 L 648.00 528.00 L 639.50 528.00 L 631.00 528.00 L 631.00 563.00 L 631.00 598.00 L 639.50 598.00 L 648.00 598.00 L 648.00 563.00 ZM 682.50 546.00 L 682.50 494.00 L 674.29 494.00 L 666.08 494.00 L 665.79 527.25 C665.63,545.54 665.63,568.94 665.79,579.25 L 666.09 598.00 L 674.29 598.00 L 682.50 598.00 L 682.50 546.00 ZM 802.43 596.43 C803.29,595.56 804.00,594.02 804.00,593.00 C804.00,591.98 803.29,590.44 802.43,589.57 C801.06,588.21 796.55,588.00 768.13,588.00 C733.16,588.00 733.00,588.02 733.00,593.00 C733.00,597.98 733.16,598.00 768.13,598.00 C796.55,598.00 801.06,597.79 802.43,596.43 ZM 827.96 576.07 C829.44,573.32 829.27,572.27 827.00,570.00 C825.06,568.06 823.67,568.00 780.50,568.00 C737.33,568.00 735.94,568.06 734.00,570.00 C731.59,572.41 731.55,572.92 733.56,575.78 L 735.11 578.00 L 781.02 578.00 C825.39,578.00 826.96,577.93 827.96,576.07 ZM 530.86 537.25 C532.45,535.74 540.55,527.25 548.85,518.39 L 563.95 502.28 L 570.72 501.73 L 577.50 501.19 L 585.25 506.22 C592.67,511.04 593.00,511.42 593.00,515.05 C593.00,519.88 596.76,524.55 601.87,526.08 C609.28,528.30 616.99,522.09 617.00,513.90 C617.00,510.53 617.99,509.39 632.21,496.40 C640.57,488.75 652.16,478.09 657.96,472.69 C668.17,463.20 668.62,462.90 672.27,463.46 C679.34,464.53 686.00,458.88 686.00,451.82 C686.00,441.58 676.67,435.86 668.30,440.96 C664.20,443.46 661.70,448.28 662.21,452.68 C662.58,455.83 662.09,456.55 656.05,461.79 C652.45,464.92 646.10,470.64 641.94,474.49 C637.78,478.35 629.31,486.17 623.12,491.88 L 611.87 502.26 L 606.19 502.46 C603.06,502.56 600.05,502.84 599.49,503.08 C598.93,503.31 594.84,501.19 590.39,498.36 C582.77,493.53 582.25,492.98 581.61,488.98 C580.67,483.07 575.56,478.00 570.55,478.00 C562.87,478.00 557.96,482.93 557.67,490.93 C557.50,495.66 557.41,495.78 540.00,513.93 C529.48,524.90 522.38,533.10 522.19,534.49 C521.99,536.00 522.68,537.36 524.17,538.40 C527.18,540.51 527.48,540.46 530.86,537.25 ZM 877.86 535.28 C884.22,531.35 888.26,524.57 888.81,516.89 C889.40,508.84 887.14,503.17 881.30,498.03 C872.21,490.04 860.19,489.87 851.15,497.60 C842.65,504.88 840.49,515.58 845.51,525.64 C848.07,530.79 854.47,536.35 859.80,538.07 C864.62,539.63 872.90,538.35 877.86,535.28 ZM 802.07 529.96 C804.44,528.70 804.57,525.29 802.35,522.83 C800.81,521.13 798.40,521.00 767.87,521.00 L 735.05 521.00 L 733.41 523.50 C731.89,525.82 731.89,526.18 733.41,528.50 L 735.05 531.00 L 767.59 531.00 C788.11,531.00 800.85,530.62 802.07,529.96 ZM 827.87 508.38 C828.85,506.23 828.78,505.32 827.51,503.38 L 825.95 501.00 L 780.50 501.00 L 735.05 501.00 L 733.41 503.50 C731.89,505.82 731.89,506.18 733.41,508.50 L 735.05 511.00 L 780.86 511.00 L 826.68 511.00 L 827.87 508.38 ZM 752.00 454.50 L 752.00 440.00 L 743.50 440.00 L 735.00 440.00 L 735.00 454.50 L 735.00 469.00 L 743.50 469.00 L 752.00 469.00 L 752.00 454.50 ZM 785.00 441.50 L 785.00 414.00 L 776.50 414.00 L 768.00 414.00 L 768.00 441.50 L 768.00 469.00 L 776.50 469.00 L 785.00 469.00 L 785.00 441.50 ZM 820.00 448.50 L 820.00 428.00 L 811.50 428.00 L 803.00 428.00 L 803.00 448.50 L 803.00 469.00 L 811.50 469.00 L 820.00 469.00 L 820.00 448.50 ZM 850.00 437.50 L 850.00 406.00 L 841.50 406.00 L 833.00 406.00 L 833.00 437.50 L 833.00 469.00 L 841.50 469.00 L 850.00 469.00 L 850.00 437.50 ZM 880.00 451.50 L 880.00 434.00 L 871.50 434.00 L 863.00 434.00 L 863.00 451.50 L 863.00 469.00 L 871.50 469.00 L 880.00 469.00 L 880.00 451.50 ZM 548.85 451.72 C554.69,447.85 558.25,442.06 558.79,435.55 C559.37,428.57 557.64,423.65 552.75,418.35 C544.68,409.59 532.14,408.91 522.99,416.74 C510.31,427.59 513.16,446.69 528.50,453.66 C530.34,454.50 534.06,454.92 538.11,454.74 C543.33,454.51 545.59,453.88 548.85,451.72 ZM 616.07 447.96 C618.26,446.79 618.70,442.10 616.80,440.20 C615.95,439.35 609.88,439.00 595.87,439.00 C574.91,439.00 573.00,439.42 573.00,444.00 C573.00,448.56 574.97,449.00 595.14,449.00 C606.32,449.00 614.93,448.57 616.07,447.96 ZM 653.17 428.35 C655.08,426.62 655.54,423.39 654.17,421.24 C653.54,420.25 644.82,420.03 613.93,420.24 L 574.50 420.50 L 574.19 423.65 C573.59,429.92 574.10,430.00 614.89,430.00 C647.41,430.00 651.54,429.82 653.17,428.35 ZM 374.69 597.36 C374.31,596.98 374.00,595.85 374.00,594.86 C374.00,593.52 375.47,592.64 379.75,591.44 C382.91,590.55 388.47,588.96 392.11,587.91 C395.74,586.86 399.45,586.00 400.34,586.00 C402.46,586.00 403.36,589.81 402.26,594.09 L 401.38 597.50 L 388.38 597.78 C381.24,597.93 375.08,597.74 374.69,597.36 ZM 117.28 596.46 C116.33,595.77 115.97,593.97 116.18,590.96 C116.60,585.11 117.94,584.95 131.74,589.10 C143.52,592.64 146.21,594.19 144.16,596.24 C142.59,597.81 119.39,598.00 117.28,596.46 ZM 144.50 552.85 C124.44,548.56 123.00,547.76 123.00,540.84 C123.00,535.93 126.50,532.00 130.87,532.00 C133.94,532.00 163.83,546.88 165.99,549.48 C167.44,551.23 166.45,554.71 164.18,555.85 C163.11,556.38 155.94,555.29 144.50,552.85 ZM 353.45 553.94 C352.08,552.43 351.85,551.46 352.58,550.30 C353.13,549.43 360.66,544.96 369.32,540.36 C386.94,531.00 390.43,530.19 393.93,534.63 C396.58,538.01 396.75,545.01 394.24,547.28 C392.46,548.89 362.91,556.00 357.99,556.00 C356.52,556.00 354.47,555.07 353.45,553.94 ZM 860.00 594.21 C852.60,590.17 850.15,582.53 853.90,575.21 C856.29,570.57 860.58,568.00 865.95,568.00 C871.70,568.00 875.61,570.31 878.10,575.19 C884.28,587.31 871.66,600.57 860.00,594.21 ZM 871.41 585.09 C876.40,580.05 877.17,578.80 876.61,576.59 C875.65,572.76 871.82,573.15 867.87,577.49 C865.48,580.11 864.37,580.72 863.41,579.92 C862.70,579.34 860.86,579.00 859.31,579.18 C857.12,579.43 856.43,580.08 856.20,582.13 C855.96,584.16 856.76,585.48 859.67,587.88 C861.75,589.60 863.93,591.00 864.51,591.00 C865.09,591.00 868.19,588.34 871.41,585.09 ZM 602.61 517.70 C601.42,516.84 600.94,515.41 601.16,513.45 C601.46,510.81 601.87,510.50 605.00,510.50 C607.91,510.50 608.56,510.90 608.83,512.83 C609.13,514.95 606.64,519.00 605.04,519.00 C604.68,519.00 603.58,518.42 602.61,517.70 ZM 566.00 492.00 C564.38,488.98 566.37,486.00 570.02,486.00 C572.33,486.00 573.10,486.54 573.59,488.51 C573.95,489.95 573.70,491.66 572.99,492.51 C571.22,494.65 567.26,494.36 566.00,492.00 ZM 672.15 454.40 C668.18,451.62 670.34,446.49 675.19,447.17 C676.97,447.42 677.57,448.23 677.81,450.68 C678.21,454.81 675.39,456.66 672.15,454.40 ZM 862.47 528.94 C860.81,528.46 857.95,526.51 856.11,524.62 C850.21,518.53 850.88,509.38 857.61,504.09 C861.40,501.11 870.65,501.15 874.49,504.17 C877.56,506.59 880.00,511.60 880.00,515.51 C880.00,520.29 876.22,526.00 871.69,528.05 C867.04,530.16 866.77,530.19 862.47,528.94 ZM 866.90 524.05 C867.87,523.54 870.79,520.62 873.38,517.59 C877.42,512.86 877.95,511.77 877.02,510.03 C875.22,506.67 870.72,507.37 867.57,511.49 C865.01,514.85 864.82,514.93 862.52,513.42 C860.67,512.21 859.67,512.11 858.07,512.96 C854.58,514.83 855.44,518.58 860.15,521.99 C864.87,525.41 864.55,525.31 866.90,524.05 ZM 533.54 445.27 C529.82,444.33 527.16,441.87 525.58,437.90 C521.07,426.63 533.30,416.62 543.77,423.00 C551.94,427.98 550.51,440.80 541.36,444.62 C537.97,446.04 536.91,446.13 533.54,445.27 Z" fill="rgb(250,252,253)"/>
</g>
</svg>